<svg id="Layer_1" enable-background="new 0 0 511.99 511.99" height="512" viewBox="0 0 511.99 511.99" width="512" xmlns="http://www.w3.org/2000/svg"><g><circle cx="216.466" cy="411.986" fill="#f9f9f9" r="40"/><path d="m256.466 411.986c0-22.056-17.944-40-40-40v80c22.055 0 40-17.944 40-40z" fill="#eceae7"/><g><path d="m502.469 280.945h-49.965v-88.99h-44.094v-30h74.094v88.99h19.965z" fill="#ffd321"/></g><g><path d="m502.469 280.945h-49.965v-88.99h-44.094v-30h74.094v88.99h19.965z" fill="#ffd845"/></g><path d="m171.464 270.453h90.004v74.824h-90.004z" fill="#ffd321"/><path d="m216.466 270.453h45.002v74.824h-45.002z" fill="#ffd845"/><path d="m378.408 101.951c-24.814 0-45.002 20.188-45.002 45.002v305.033h90.004v-305.033c0-24.814-20.187-45.002-45.002-45.002z" fill="#ff7038"/><path d="m378.408 101.951c-24.814 0-45.002 20.188-45.002 45.002v305.033h90.004v-305.033c0-24.814-20.187-45.002-45.002-45.002z" fill="#ff405c"/><path d="m54.523 101.951c-24.814 0-45.002 20.188-45.002 45.002v305.033h90.004v-305.033c0-24.814-20.187-45.002-45.002-45.002z" fill="#ff7038"/><path d="m216.466 0c-81.023 0-146.94 65.917-146.94 146.94s65.917 146.94 146.94 146.94 146.94-65.917 146.94-146.94-65.917-146.94-146.94-146.94zm111.71 131.94h-96.71v-38.672c48.046 2.975 83.824 19.972 96.71 38.672zm-126.71 0h-96.71c12.886-18.701 48.664-35.698 96.71-38.673zm-96.71 30h96.71v38.673c-48.047-2.975-83.825-19.972-96.71-38.673zm126.71 0h96.71c-12.886 18.701-48.664 35.698-96.71 38.673zm83.422-78.089c-23.124-11.711-52.233-18.876-83.422-20.618v-32.274c34.978 4.499 65.166 24.51 83.422 52.892zm-113.422-52.892v32.274c-31.189 1.742-60.298 8.907-83.422 20.618 18.256-28.382 48.444-48.393 83.422-52.892zm-83.423 179.071c23.125 11.711 52.234 18.876 83.422 20.618v32.274c-34.977-4.499-65.165-24.51-83.422-52.892zm113.423 52.892v-32.274c31.189-1.742 60.298-8.907 83.422-20.618-18.256 28.382-48.444 48.393-83.422 52.892z" fill="#ffd845"/><path d="m363.406 146.94c0-81.023-65.917-146.94-146.94-146.94v293.881c81.023 0 146.94-65.917 146.94-146.941zm-131.94-115.981c34.978 4.499 65.166 24.51 83.422 52.892-23.124-11.711-52.233-18.876-83.422-20.618zm0 62.309c48.047 2.975 83.824 19.972 96.71 38.673h-96.71zm0 68.672h96.71c-12.886 18.701-48.664 35.698-96.71 38.673zm0 100.982v-32.274c31.189-1.742 60.298-8.907 83.422-20.618-18.256 28.382-48.444 48.393-83.422 52.892z" fill="#ffd321"/><path d="m9.521 431.987h413.889v80.003h-413.889z" fill="#ff405c"/><path d="m216.466 431.987h206.944v80.003h-206.944z" fill="#c1126b"/></g></svg>